<?xml version="1.0" encoding="UTF-8"?>
<svg version="1.1" xmlns="http://www.w3.org/2000/svg" width="817" height="535">
<path d="M0 0 C269.61 0 539.22 0 817 0 C817 176.55 817 353.1 817 535 C547.39 535 277.78 535 0 535 C0 358.45 0 181.9 0 0 Z " fill="#1D1D1D" transform="translate(0,0)"/>
<path d="M0 0 C7.59 0 15.18 0 23 0 C23 7.59 23 15.18 23 23 C26.63 15.41 30.26 7.82 34 0 C40.93 0 47.86 0 55 0 C55.495 11.385 55.495 11.385 56 23 C56.71027344 21.42347656 57.42054688 19.84695312 58.15234375 18.22265625 C59.08061069 16.16921727 60.00900254 14.11583476 60.9375 12.0625 C61.40607422 11.02158203 61.87464844 9.98066406 62.35742188 8.90820312 C62.80537109 7.91884766 63.25332031 6.92949219 63.71484375 5.91015625 C64.12855225 4.99371338 64.54226074 4.07727051 64.96850586 3.13305664 C66 1 66 1 67 0 C68.63472882 -0.08700342 70.27314055 -0.10701063 71.91015625 -0.09765625 C72.89951172 -0.09443359 73.88886719 -0.09121094 74.90820312 -0.08789062 C75.94912109 -0.07951172 76.99003906 -0.07113281 78.0625 -0.0625 C79.62967773 -0.05573242 79.62967773 -0.05573242 81.22851562 -0.04882812 C83.8190666 -0.03699913 86.40950559 -0.02051689 89 0 C87.59290001 4.50271997 85.83238706 8.74491367 83.8125 13 C83.51077881 13.64138916 83.20905762 14.28277832 82.89819336 14.94360352 C79.70948302 21.68429499 76.37152622 28.34917776 73 35 C74.485 35.495 74.485 35.495 76 36 C74.45528992 41.04021383 72.38327592 45.69008353 70.125 50.4375 C69.61646484 51.52514648 69.61646484 51.52514648 69.09765625 52.63476562 C66.9157942 57.25151936 64.55345697 61.53145031 62 66 C54.41 66 46.82 66 39 66 C38.505 55.605 38.505 55.605 38 45 C34.7 51.93 31.4 58.86 28 66 C20.41 66 12.82 66 5 66 C5 56.1 5 46.2 5 36 C3.35 36 1.7 36 0 36 C0 24.12 0 12.24 0 0 Z " fill="#FBFBFB" transform="translate(381,226)"/>
<path d="M0 0 C-1.32 5.94 -2.64 11.88 -4 18 C-6.31 18 -8.62 18 -11 18 C-12.625 16.125 -12.625 16.125 -14 14 C-18.47098533 11.29031192 -23.9212026 11.41464708 -29 12 C-32.24849977 13.72226496 -32.24849977 13.72226496 -33 17 C-32.32195312 17.17015625 -31.64390625 17.3403125 -30.9453125 17.515625 C-11.9093283 22.47236327 -11.9093283 22.47236327 -7 30 C-7 30.66 -7 31.32 -7 32 C-5.68 32 -4.36 32 -3 32 C-1.36065185 37.15223706 -2.15455334 40.10181796 -4.4375 45 C-9.3053049 53.93175211 -14.88974824 58.12091728 -24.484375 61.2734375 C-25.31453125 61.51320313 -26.1446875 61.75296875 -27 62 C-27.63550781 62.19207031 -28.27101563 62.38414062 -28.92578125 62.58203125 C-38.91412875 64.59474911 -48.68733996 62.7690825 -58 59 C-58.99 58.34 -59.98 57.68 -61 57 C-59.28571429 41.28571429 -59.28571429 41.28571429 -57 39 C-53.75 38.5625 -53.75 38.5625 -50 39 C-47.3125 41.875 -47.3125 41.875 -45 45 C-40.84200206 47.61832088 -36.77227758 47.56144442 -32 47 C-29.01755087 45.8646327 -29.01755087 45.8646327 -27 44 C-26.67 43.01 -26.34 42.02 -26 41 C-26.52207031 40.82984375 -27.04414063 40.6596875 -27.58203125 40.484375 C-33.76878131 38.4474065 -39.89760573 36.2768752 -46 34 C-46.70898438 33.75378906 -47.41796875 33.50757813 -48.1484375 33.25390625 C-50.9695686 32.2004459 -52.86785988 31.14066529 -54.9375 28.9375 C-57.23806061 22.57712656 -56.73623771 16.87397063 -53.9375 10.75 C-49.29623279 2.47869141 -42.90977281 -1.20674325 -34 -4 C-21.66213039 -6.98432236 -11.50142148 -4.34015905 0 0 Z " fill="#FAFAFA" transform="translate(524,230)"/>
<path d="M0 0 C7.26 0 14.52 0 22 0 C23.46484375 11.71875 23.46484375 11.71875 23.73022461 13.8671875 C23.90757662 15.26931163 24.09305464 16.67043616 24.28735352 18.0703125 C24.8777823 22.4123478 25.10812067 26.62041577 25.0625 31 C25.05347656 32.134375 25.04445313 33.26875 25.03515625 34.4375 C25.02355469 35.283125 25.01195312 36.12875 25 37 C26.98 37 28.96 37 31 37 C31.34103465 40.14504693 31.67137463 43.29113417 32 46.4375 C32.09539062 47.31599609 32.19078125 48.19449219 32.2890625 49.09960938 C32.42441406 50.40961914 32.42441406 50.40961914 32.5625 51.74609375 C32.64628906 52.53685303 32.73007812 53.3276123 32.81640625 54.14233398 C33.06985024 58.08723006 33 62.04697092 33 66 C25.74 66 18.48 66 11 66 C9.54218666 61.62655999 9.9401968 57.60484643 10 53 C5.71 53 1.42 53 -3 53 C-3.66 54.98 -4.32 56.96 -5 59 C-6.32 61.31 -7.64 63.62 -9 66 C-16.26 66 -23.52 66 -31 66 C-29.48564509 62.21411273 -27.96084619 58.99011244 -25.9609375 55.48046875 C-25.38085938 54.45888672 -24.80078125 53.43730469 -24.203125 52.38476562 C-23.29820312 50.80211914 -23.29820312 50.80211914 -22.375 49.1875 C-21.76398438 48.11306641 -21.15296875 47.03863281 -20.5234375 45.93164062 C-19.01844115 43.28613924 -17.51054209 40.6423375 -16 38 C-17.32 37.34 -18.64 36.68 -20 36 C-13.45409725 23.92812224 -6.87021053 11.89074899 0 0 Z " fill="#F9F9F9" transform="translate(347,226)"/>
<path d="M0 0 C3.72122636 1.65387838 5.94466259 3.49658396 8 7 C8.29296875 10.453125 8.29296875 10.453125 8.1875 14.25 C8.14689453 16.14492188 8.14689453 16.14492188 8.10546875 18.078125 C8.07066406 19.04234375 8.03585937 20.0065625 8 21 C8.99 21.33 9.98 21.66 11 22 C10.50466206 32.07187149 7.66202998 41.30748057 5 51 C-1.93 51 -8.86 51 -16 51 C-14.90049846 44.40299074 -13.55603716 37.92335596 -11.9375 31.4375 C-11.7631543 30.73496094 -11.58880859 30.03242188 -11.40917969 29.30859375 C-10.1295444 24.2590888 -10.1295444 24.2590888 -9 22 C-10.32 22 -11.64 22 -13 22 C-13.33 20.68 -13.66 19.36 -14 18 C-15.32 18 -16.64 18 -18 18 C-18.33 19.32 -18.66 20.64 -19 22 C-18.01 22 -17.02 22 -16 22 C-16.60195783 28.27666442 -17.58851259 34.29548412 -19 40.4375 C-19.17789063 41.23865234 -19.35578125 42.03980469 -19.5390625 42.86523438 C-20.86172715 48.7234543 -20.86172715 48.7234543 -22 51 C-28.93 51 -35.86 51 -43 51 C-38.70615034 29.97494305 -38.70615034 29.97494305 -36 22 C-37.32 22 -38.64 22 -40 22 C-39.34034961 15.13963599 -37.7637236 8.65556077 -36 2 C-35.36497559 2.01047363 -34.72995117 2.02094727 -34.07568359 2.03173828 C-31.1754966 2.07352467 -28.27537318 2.09939771 -25.375 2.125 C-23.87646484 2.15013672 -23.87646484 2.15013672 -22.34765625 2.17578125 C-14.51066929 2.22768183 -7.77010173 -0.61667474 0 0 Z " fill="#F9F9F9" transform="translate(615,241)"/>
<path d="M0 0 C6.93 0 13.86 0 21 0 C19.68779289 3.28051776 18.61673391 5.84393715 16.8359375 8.76953125 C16.43632813 9.43017578 16.03671875 10.09082031 15.625 10.77148438 C15.00625 11.78178711 15.00625 11.78178711 14.375 12.8125 C13.95476563 13.50537109 13.53453125 14.19824219 13.1015625 14.91210938 C12.0710533 16.61010748 11.03598319 18.30533614 10 20 C10.99 20.66 11.98 21.32 13 22 C12.03562305 23.68516306 11.07064442 25.36998178 10.10546875 27.0546875 C9.48599365 28.1370166 8.86651855 29.2193457 8.22827148 30.33447266 C6.86377689 32.71035208 5.48337592 35.07595623 4.09008789 37.43505859 C0.94481378 42.77654396 -2.1153781 48.07615675 -4.671875 53.734375 C-9.19462047 63.27198766 -9.19462047 63.27198766 -13 66 C-20.17957169 68.02755181 -27.72461409 67.12639957 -35 66 C-34.10749982 64.33154605 -33.21079008 62.66534383 -32.3125 61 C-31.77109375 59.98550781 -31.2296875 58.97101563 -30.671875 57.92578125 C-29.27096538 55.47418942 -27.78401477 53.40709348 -26.0625 51.1875 C-22.50054029 45.62264921 -24.20397057 39.22107037 -25 33 C-25.19799987 30.70921664 -25.3863571 28.41756757 -25.5625 26.125 C-25.70746925 24.41659312 -25.85295461 22.70822943 -26 21 C-27.32 21 -28.64 21 -30 21 C-31.07689831 18.84620337 -31.29769483 17.32074652 -31.5625 14.9375 C-31.64628906 14.22464844 -31.73007812 13.51179687 -31.81640625 12.77734375 C-32.07538272 8.8596359 -32 4.92625822 -32 1 C-25.07 1 -18.14 1 -11 1 C-10.34 6.28 -9.68 11.56 -9 17 C-6.03 11.39 -3.06 5.78 0 0 Z " fill="#FAFAFA" transform="translate(555,242)"/>
<path d="M0 0 C-0.47986031 5.56890517 -1.29915181 10.67067568 -3 16 C-5.64 16 -8.28 16 -11 16 C-11.20625 15.360625 -11.4125 14.72125 -11.625 14.0625 C-12.87756772 11.73040039 -12.87756772 11.73040039 -15.75 11.0625 C-19.69577583 10.9866197 -21.692933 11.89550282 -25 14 C-25.66 14.99 -26.32 15.98 -27 17 C-25.68 17.66 -24.36 18.32 -23 19 C-23.165 19.515625 -23.33 20.03125 -23.5 20.5625 C-24.15934906 23.77682668 -24.18175217 26.72846085 -24 30 C-22.23175194 32.21160824 -22.23175194 32.21160824 -19.9765625 32.1171875 C-14.93813731 31.73735375 -14.93813731 31.73735375 -10.9375 28.9375 C-9 27 -9 27 -6.98828125 26.73828125 C-4.99030938 26.74874184 -2.993574 26.86709507 -1 27 C-2.61442441 40.52080444 -2.61442441 40.52080444 -5.734375 43.8515625 C-7.8315207 44.91639229 -9.69916119 45.52693034 -12 46 C-13.051875 46.2475 -14.10375 46.495 -15.1875 46.75 C-35.36108887 48.07285829 -35.36108887 48.07285829 -41.8125 42.625 C-45.52045798 38.17545043 -46.26157911 35.38781156 -46.1875 29.5625 C-46.18105469 28.45003906 -46.17460938 27.33757812 -46.16796875 26.19140625 C-46.01836796 23.34899116 -45.64625807 20.76598453 -45 18 C-46.32 18 -47.64 18 -49 18 C-46.65717124 9.57317612 -40.74265754 3.24043741 -33.1875 -1.0625 C-22.98577696 -6.28414695 -10.00092998 -5.20836178 0 0 Z " fill="#FAFAFA" transform="translate(678,246)"/>
<path d="M0 0 C4.34487198 2.37911595 6.34371012 5.40861037 8 10 C9.21816406 9.92136719 10.43632812 9.84273438 11.69140625 9.76171875 C21.49025614 9.48450776 21.49025614 9.48450776 26 11 C29.82766318 15.01768901 33 20.25142564 33 26 C37.43075695 26.10486546 41.85582323 26.14318884 46.28735352 26.12207031 C47.79171509 26.12400747 49.29616776 26.14357184 50.80004883 26.18164062 C59.81957647 26.62639192 59.81957647 26.62639192 67.55419922 22.73339844 C69.30509783 20.22137575 70.70415893 17.76867507 72 15 C73 14 73 14 75.09437561 13.87974548 C76.01592941 13.88196609 76.93748322 13.88418671 77.88696289 13.88647461 C78.92796646 13.88655014 79.96897003 13.88662567 81.04151917 13.88670349 C82.1737944 13.89186478 83.30606964 13.89702606 84.47265625 13.90234375 C86.20182533 13.90446617 86.20182533 13.90446617 87.96592712 13.90663147 C91.66481064 13.91224995 95.36363464 13.92480558 99.0625 13.9375 C101.56315017 13.94251262 104.06380129 13.94707594 106.56445312 13.95117188 C112.70965588 13.96222538 118.85482369 13.97898148 125 14 C125 15.32 125 16.64 125 18 C124.3766124 17.98810135 123.75322479 17.9762027 123.11094666 17.96394348 C116.6050113 17.85062133 110.10186357 17.81465531 103.5949707 17.82299805 C101.16905259 17.81603493 98.74310702 17.78954175 96.31762695 17.74291992 C85.06536987 17.35270026 85.06536987 17.35270026 74 19 C71.19982632 21.71197713 70.20771033 23.93148826 68.74487305 27.50463867 C67 30 67 30 63.33911133 31.0480957 C59.50423878 31.46419387 55.69945795 31.45650162 51.84790039 31.32421875 C49.4350344 31.24992408 47.04022032 31.28285625 44.62695312 31.328125 C33.61900379 31.31265051 33.61900379 31.31265051 29.68017578 28.11914062 C28.09495617 25.79291277 26.99579607 23.62874902 26 21 C24.76365355 17.56194527 24.76365355 17.56194527 23 15 C20.1703969 14.36295275 18.14186274 14.11443282 15.3125 14.125 C14.2596582 14.0940625 14.2596582 14.0940625 13.18554688 14.0625 C11.45754532 14.01547955 9.72863594 14.00425249 8 14 C7.70996094 14.94359375 7.41992188 15.8871875 7.12109375 16.859375 C5.48607853 21.43969639 2.97565299 23.34956467 -1 26 C-5.18238594 26.93216886 -8.65590557 26.842029 -12.33203125 24.5390625 C-16.88344939 20.65190539 -18.72429442 18.3631907 -19.4375 12.25 C-19.39665214 7.82209204 -17.62700368 5.62023127 -14.703125 2.4453125 C-9.98280956 -1.56045978 -5.82506648 -1.56479256 0 0 Z " fill="#6B15E5" transform="translate(161,262)"/>
<path d="M0 0 C4.19711587 -0.42206825 8.31620437 -0.08530502 12.50366211 0.29467773 C13.95578916 0.37004765 15.4082945 0.43846707 16.86108398 0.49975586 C20.39572962 0.66388914 23.9159985 0.92172389 27.44116211 1.23217773 C27.44116211 2.55217773 27.44116211 3.87217773 27.44116211 5.23217773 C26.60979736 5.18391846 25.77843262 5.13565918 24.921875 5.0859375 C21.79486079 4.9412187 18.67546482 4.86599186 15.54541016 4.83544922 C13.54213319 4.79544596 11.54089439 4.67762752 9.54077148 4.55834961 C5.37100909 4.54784643 2.33371759 4.69722455 -1.55883789 6.23217773 C-3.29853366 8.54685339 -4.34716475 11.11709214 -5.49633789 13.76342773 C-6.84239682 16.69023499 -8.13699364 19.07270398 -10.55883789 21.23217773 C-18.1244363 23.84160389 -26.77484974 22.63075823 -34.62133789 22.16967773 C-36.84442071 22.09437115 -39.06774779 22.02594126 -41.29125977 21.96459961 C-46.71914412 21.79991787 -52.13785578 21.54961377 -57.55883789 21.23217773 C-57.84887695 22.17448242 -58.13891602 23.11678711 -58.43774414 24.08764648 C-59.64688851 27.47914899 -60.79904221 28.97416309 -63.55883789 31.23217773 C-67.63321547 32.59030359 -71.3028388 32.88582947 -75.55883789 32.23217773 C-78.69432963 30.57843737 -80.79345427 28.2410925 -82.93383789 25.41967773 C-84.2627699 20.76841571 -84.26626101 16.74808441 -82.24633789 12.41967773 C-79.77770222 9.21959446 -78.45213175 7.52994235 -74.55883789 6.23217773 C-69.71670862 5.73155081 -65.83180878 5.48961138 -61.55883789 7.98217773 C-58.74580392 11.14684095 -57.55883789 12.96663 -57.55883789 17.23217773 C-51.31343534 17.46119494 -45.07663311 17.58998212 -38.82714844 17.62890625 C-36.70553806 17.65588888 -34.58408417 17.70953818 -32.46386719 17.79101562 C-22.34984815 18.31422585 -22.34984815 18.31422585 -12.55883789 16.23217773 C-9.67077452 13.51044576 -8.27016134 10.18348297 -6.70010376 6.59591675 C-4.3123053 1.49305103 -4.3123053 1.49305103 0 0 Z " fill="#6A15E1" transform="translate(258.558837890625,295.767822265625)"/>
<path d="M0 0 C0.7528125 0.08765625 1.505625 0.1753125 2.28125 0.265625 C5.62441347 0.99547055 7.87200241 2.09957392 10.25 4.5625 C11.73978752 7.16962815 11.59762435 8.79686331 11.5 11.75 C12.27601563 11.6871582 13.05203125 11.62431641 13.8515625 11.55957031 C35.39303287 10.03650096 35.39303287 10.03650096 40.54785156 12.87939453 C43.70343337 15.92028427 45.23157103 19.6303633 46.5 23.75 C46.995 25.235 46.995 25.235 47.5 26.75 C66.31 26.75 85.12 26.75 104.5 26.75 C104.5 27.74 104.5 28.73 104.5 29.75 C96.94648816 30.00576618 89.39342872 30.2007594 81.83656311 30.31993389 C78.32648989 30.37716259 74.81939411 30.45464164 71.31103516 30.57983398 C67.26958107 30.7231333 63.23121156 30.77573951 59.1875 30.82421875 C57.9382373 30.88099289 56.68897461 30.93776703 55.40185547 30.9962616 C46.82461709 31.00229768 46.82461709 31.00229768 42.94384766 27.33340454 C40.90320372 24.55252309 39.16114279 21.76961592 37.5 18.75 C36.84 17.76 36.18 16.77 35.5 15.75 C33.0842887 15.24095616 33.0842887 15.24095616 30.2734375 15.23828125 C29.2421875 15.20283203 28.2109375 15.16738281 27.1484375 15.13085938 C26.06820312 15.10830078 24.98796875 15.08574219 23.875 15.0625 C22.78703125 15.02833984 21.6990625 14.99417969 20.578125 14.95898438 C17.88551937 14.87631666 15.19324709 14.80722913 12.5 14.75 C12.22285156 15.68199219 11.94570312 16.61398438 11.66015625 17.57421875 C10.20362692 21.56128388 8.18752641 23.77705593 4.5 25.75 C-0.16564059 27.18558172 -3.366574 27.28463491 -7.8125 25.1875 C-12.05770001 21.33720232 -14.21385985 18.55268297 -15.125 12.8125 C-14.91324951 8.56934588 -13.01071925 6.24396282 -10.203125 3.1953125 C-6.82482019 0.32840245 -4.40973071 -0.57386906 0 0 Z " fill="#6E15EC" transform="translate(182.5,205.25)"/>
<path d="M0 0 C2.69028633 2.29465599 3.80836644 4.55556436 5.125 7.8125 C5.125 8.4725 5.125 9.1325 5.125 9.8125 C24.595 9.8125 44.065 9.8125 64.125 9.8125 C64.62 11.2975 64.62 11.2975 65.125 12.8125 C45.325 13.1425 25.525 13.4725 5.125 13.8125 C4.135 16.2875 4.135 16.2875 3.125 18.8125 C-0.2981279 22.94386126 -3.52709147 24.512767 -8.8125 25.1875 C-13.49559591 24.61405968 -16.30268642 22.27637816 -19.6875 19.125 C-21.56111083 15.47638944 -22.12349518 11.90202067 -21.875 7.8125 C-16.83919456 -1.89941048 -10.04899671 -4.15067256 0 0 Z " fill="#6E15EA" transform="translate(221.875,243.1875)"/>
<path d="M0 0 C2.43119623 1.87015094 3.64069173 3.28138345 5 6 C5.04104354 10.25211123 4.66745632 13.90537164 2.4375 17.5625 C-1.02948384 19.6071315 -4.13684028 19.72817495 -8 19 C-10.9375 17.5625 -10.9375 17.5625 -13 15 C-13.96992656 11.94187861 -14.30767308 9.1963814 -14 6 C-10.49260984 0.19466456 -6.62936109 -0.98455858 0 0 Z " fill="#161319" transform="translate(186,209)"/>
<path d="M0 0 C2.86830829 2.01391859 4.61592935 3.45434983 5.48046875 6.93359375 C5.75501158 10.85881416 5.22076904 12.66884645 3 16 C-0.35243241 18.23495494 -2.12916275 18.67920629 -6.06640625 18.43359375 C-9.10618646 17.75194607 -10.86696044 16.19767713 -13 14 C-14.56935594 10.86128812 -14.35201103 8.46144178 -14 5 C-9.45613306 -0.5004705 -6.96669891 -1.653115 0 0 Z " fill="#131116" transform="translate(160,266)"/>
<path d="M0 0 C2.5625 1.5 2.5625 1.5 4 4 C4.66751604 7.16036355 4.72943416 9.8466 4 13 C1.3647235 16.22821371 -0.06431379 17.73635815 -4.1796875 18.296875 C-6.375 18.3125 -6.375 18.3125 -10 18 C-10 17.34 -10 16.68 -10 16 C-10.99 15.67 -11.98 15.34 -13 15 C-15.06333542 12.42083073 -15.14485164 10.18136658 -14.9375 7 C-14.43293826 3.9669603 -13.96736148 2.9581819 -12 0.4375 C-7.7540067 -1.59703846 -4.47420741 -1.26880509 0 0 Z " fill="#161519" transform="translate(219,246)"/>
<path d="M0 0 C2.97247625 2.1120226 3.83352425 3.44111713 4.875 6.9375 C5.04206829 11.03067312 4.12815893 13.49578809 1.6875 16.75 C-0.64786964 18.47990343 -2.07871909 18.8672145 -5 19 C-11.45985401 16.81021898 -11.45985401 16.81021898 -14 13 C-14.34061873 9.9830912 -14.57212107 7.90592185 -14 5 C-9.49473875 -0.57229681 -6.95890474 -1.55975451 0 0 Z " fill="#131116" transform="translate(193,306)"/>
<path d="M0 0 C0.33 0 0.66 0 1 0 C1 4.62 1 9.24 1 14 C2.32 14.33 3.64 14.66 5 15 C1.7 14.67 -1.6 14.34 -5 14 C-1.85714286 4.42857143 -1.85714286 4.42857143 0 0 Z " fill="#434343" transform="translate(351,249)"/>
<path d="M0 0 C1.65 0.33 3.3 0.66 5 1 C5 2.32 5 3.64 5 5 C6.32 5 7.64 5 9 5 C8.67 5.66 8.34 6.32 8 7 C6.02 7 4.04 7 2 7 C2 6.34 2 5.68 2 5 C1.01 5 0.02 5 -1 5 C-0.67 3.35 -0.34 1.7 0 0 Z " fill="#434343" transform="translate(597,258)"/>
</svg>
